<mxfile host="app.diagrams.net" modified="2022-12-22T13:39:58.887Z" agent="5.0 (Macintosh; Intel Mac OS X 10_15_7) AppleWebKit/537.36 (KHTML, like Gecko) Chrome/108.0.0.0 Safari/537.36" version="20.7.4" etag="PvQC4W5dLKX3SvUsYPG_" type="github">
  <diagram id="wN-Ut4Ls92LSGq_LXeiC" name="Page-1">
    <mxGraphModel dx="1026" dy="534" grid="1" gridSize="10" guides="1" tooltips="1" connect="1" arrows="1" fold="1" page="1" pageScale="1" pageWidth="850" pageHeight="1100" math="0" shadow="0">
      <root>
        <mxCell id="0" />
        <mxCell id="1" parent="0" />
        <mxCell id="qJp6LUIEpn5bRdEw_2f3-7" style="edgeStyle=orthogonalEdgeStyle;rounded=0;orthogonalLoop=1;jettySize=auto;html=1;" edge="1" parent="1" source="qJp6LUIEpn5bRdEw_2f3-1" target="qJp6LUIEpn5bRdEw_2f3-2">
          <mxGeometry relative="1" as="geometry" />
        </mxCell>
        <mxCell id="qJp6LUIEpn5bRdEw_2f3-1" value="Document" style="rounded=0;whiteSpace=wrap;html=1;" vertex="1" parent="1">
          <mxGeometry x="130" y="180" width="120" height="60" as="geometry" />
        </mxCell>
        <mxCell id="qJp6LUIEpn5bRdEw_2f3-8" style="edgeStyle=orthogonalEdgeStyle;rounded=0;orthogonalLoop=1;jettySize=auto;html=1;" edge="1" parent="1" source="qJp6LUIEpn5bRdEw_2f3-2" target="qJp6LUIEpn5bRdEw_2f3-3">
          <mxGeometry relative="1" as="geometry" />
        </mxCell>
        <mxCell id="qJp6LUIEpn5bRdEw_2f3-2" value="Sentence" style="rounded=0;whiteSpace=wrap;html=1;" vertex="1" parent="1">
          <mxGeometry x="330" y="180" width="120" height="60" as="geometry" />
        </mxCell>
        <mxCell id="qJp6LUIEpn5bRdEw_2f3-9" style="edgeStyle=orthogonalEdgeStyle;rounded=0;orthogonalLoop=1;jettySize=auto;html=1;" edge="1" parent="1" source="qJp6LUIEpn5bRdEw_2f3-3" target="qJp6LUIEpn5bRdEw_2f3-4">
          <mxGeometry relative="1" as="geometry" />
        </mxCell>
        <mxCell id="qJp6LUIEpn5bRdEw_2f3-3" value="Comparision of sentences" style="rounded=0;whiteSpace=wrap;html=1;" vertex="1" parent="1">
          <mxGeometry x="530" y="180" width="120" height="60" as="geometry" />
        </mxCell>
        <mxCell id="qJp6LUIEpn5bRdEw_2f3-10" style="edgeStyle=orthogonalEdgeStyle;rounded=0;orthogonalLoop=1;jettySize=auto;html=1;" edge="1" parent="1" source="qJp6LUIEpn5bRdEw_2f3-4" target="qJp6LUIEpn5bRdEw_2f3-5">
          <mxGeometry relative="1" as="geometry" />
        </mxCell>
        <mxCell id="qJp6LUIEpn5bRdEw_2f3-4" value="Scoring of sentences" style="rounded=0;whiteSpace=wrap;html=1;" vertex="1" parent="1">
          <mxGeometry x="530" y="300" width="120" height="60" as="geometry" />
        </mxCell>
        <mxCell id="qJp6LUIEpn5bRdEw_2f3-11" style="edgeStyle=orthogonalEdgeStyle;rounded=0;orthogonalLoop=1;jettySize=auto;html=1;" edge="1" parent="1" source="qJp6LUIEpn5bRdEw_2f3-5" target="qJp6LUIEpn5bRdEw_2f3-6">
          <mxGeometry relative="1" as="geometry" />
        </mxCell>
        <mxCell id="qJp6LUIEpn5bRdEw_2f3-5" value="Sorting and Selection" style="rounded=0;whiteSpace=wrap;html=1;" vertex="1" parent="1">
          <mxGeometry x="330" y="300" width="120" height="60" as="geometry" />
        </mxCell>
        <mxCell id="qJp6LUIEpn5bRdEw_2f3-6" value="Final Summary" style="ellipse;whiteSpace=wrap;html=1;" vertex="1" parent="1">
          <mxGeometry x="330" y="420" width="120" height="80" as="geometry" />
        </mxCell>
      </root>
    </mxGraphModel>
  </diagram>
</mxfile>
